<svg xmlns="http://www.w3.org/2000/svg" width="116" height="116" viewBox="0 0 1208 1208" shape-rendering="geometricPrecision" text-rendering="geometricPrecision" image-rendering="optimizeQuality" fill-rule="evenodd" clip-rule="evenodd"><defs><style>.fil1{fill:#373435}.fil0{fill:#fefefe;fill-rule:nonzero}</style></defs><g id="Layer_x0020_1"><path class="fil0" d="M1209 931c0 153-124 277-277 277H277C124 1208 0 1084 0 931V276C0 123 124-1 277-1h656c153 0 277 124 277 277v655z"/><path class="fil1" d="M564 444h67v-67h-67zm125 0h68v-67h-68zm-237 0h67v-67h-67zm350 0h67v-67h-67zm112 0h67v-67h-67zM564 576h67v-67h-67zm125 0h68v-67h-68zm-237 0h67v-67h-67zm350 0h67v-67h-67zm112 132h67V509h-67zm-350 0h67v-67h-67zm125 0h68v-67h-68zm-237 0h67v-67h-67zM340 444h67v-67h-67zm-112 0h67v-67h-67zm112 132h67v-67h-67zm-112 0h67v-67h-67zm112 132h67v-67h-67z"/><path class="fil1" d="M228 708h146v-67H228zm574 0h179v-67H802zM452 840h305v-67H452zm350 0h67v-67h-67zm112 0h67v-67h-67zm-686 0h67v-67h-67zm112 0h67v-67h-67z"/></g></svg>