<svg xmlns="http://www.w3.org/2000/svg" width="413.333" height="51.999" viewBox="0 0 4306 542" shape-rendering="geometricPrecision" text-rendering="geometricPrecision" image-rendering="optimizeQuality" fill-rule="evenodd" clip-rule="evenodd"><defs><style>.fil0{fill:#282828}.fil1{fill:#373435;fill-rule:nonzero}</style></defs><g id="Layer_x0020_1"><path class="fil0" d="M336 67h67V0h-67zm125 0h68V0h-68zm-237 0h67V0h-67zm350 0h67V0h-67zm112 0h67V0h-67zM336 199h67v-67h-67zm125 0h68v-67h-68zm-237 0h67v-67h-67zm350 0h67v-67h-67zm112 132h67V132h-67zm-350 0h67v-67h-67zm125 0h68v-67h-68zm-237 0h67v-67h-67zM112 67h67V0h-67zM0 67h67V0H0zm112 132h67v-67h-67zM0 199h67v-67H0zm112 132h67v-67h-67z"/><path class="fil0" d="M0 331h146v-67H0zm574 0h179v-67H574zM224 464h305v-68H224zm350 0h67v-68h-67zm112 0h67v-68h-67zM0 464h67v-68H0zm112 0h67v-68h-67z"/><path class="fil1" d="M989 229c0-127 97-213 210-213 122 0 177 79 190 137l-86 27c-6-28-32-76-104-76-55 0-116 39-116 125 0 76 56 121 117 121 71 0 99-47 107-76l87 25c-13 56-67 143-194 143-117 0-212-85-212-212zm461 203V146h87v286h-87zm43-424c29 0 52 23 52 51s-23 51-52 51c-28 0-51-23-51-51s23-51 51-51zm272 211c-34 0-64 23-64 71 0 47 30 71 64 71 35 0 65-24 65-71 0-48-30-71-65-71zm-151 323V147h85v29c12-18 43-36 84-36 83 0 133 63 133 149 0 87-56 150-136 150-37 0-64-13-78-29v132h-87zm445-110h-87V16h87v149c18-18 48-26 73-26 75 0 108 51 108 114v179h-87V268c0-28-15-49-47-49-28 0-45 20-47 46v168zm435-177c-1-22-16-48-58-48-37 0-55 27-57 48h114zm79 95c-14 49-59 91-132 91-79 0-149-56-149-152 0-92 68-151 143-151 89 0 143 55 143 147 0 12-1 25-2 27h-199c2 32 31 55 65 55 32 0 49-15 58-37l73 21zm244-117c-10-2-19-3-28-3-35 0-67 21-67 78v125h-87V147h85v39c15-32 51-41 74-41 9 0 17 1 23 3v86zm198 150c45 0 76-25 76-65 0-39-25-67-74-67h-80v132h78zm-8-180c45 0 72-27 72-65 0-39-28-64-75-64h-68v129h70zm6-178c78 0 123 46 123 110 0 44-25 75-61 88 47 11 74 53 74 98 0 64-51 111-126 111h-143V24h133zm415 269c0-64-40-98-86-98s-86 35-86 98c0 64 40 99 86 99s86-34 86-99zm55 0c0 85-59 147-141 147-83 0-141-63-141-147s59-147 141-147c83 0 141 63 141 147zm232 20v-13l-85 13c-23 3-40 17-40 41 0 21 17 40 45 40 44 0 80-21 80-82zm-96-40l75-11c17-2 21-11 21-21 0-27-18-49-60-49-38 0-59 24-63 56l-52-12c6-53 53-90 113-90 83 0 115 47 115 101v139c0 24 2 39 3 45h-53c-1-7-3-17-3-37-12 20-40 46-89 46-56 0-93-39-93-83 0-49 36-77 84-84zm387-64c-8-1-16-2-24-2-45 0-76 24-76 85v139h-54V155h53v48c20-43 55-53 83-53 7 0 15 1 18 2v57zm168 182c49 0 80-43 80-100s-30-96-79-96-82 40-82 97 29 99 81 99zm80-2c-13 26-43 49-86 49-81 0-131-64-131-147 0-78 53-145 131-145 49 0 75 24 85 47V15h53v365c0 26 2 47 3 51h-52c-1-6-3-21-3-37v-5z"/></g></svg>